<svg xmlns="http://www.w3.org/2000/svg" xmlns:xlink="http://www.w3.org/1999/xlink" version="1.1" x="0px" y="0px" viewBox="0 0 100 125" enable-background="new 0 0 100 100" xml:space="preserve"><path d="M82.694,18.098c-1.97-2.98-4.61-4.202-7.486-4.337c-0.664-0.294-1.446-0.383-2.279-0.174  c-0.725,0.182-1.426,0.416-2.109,0.692c-4.444,1.16-8.944,3.995-12.112,6.381c-3.343,2.517-6.277,5.505-8.717,8.828  c-1.409-4.338-3.548-8.451-6.376-12.125C39.054,11.439,30.99,3.701,22.492,5.604c-4.516,1.011-6.493,4.696-7.074,8.846  c-0.716,5.123-0.891,10.298-0.571,15.458c0.643,10.367,3.111,20.556,6.497,30.385c3.889,11.291,8.945,22.173,14.04,32.99  c1.536,3.262,5.96,1.394,6.238-1.579c0.817,0.183,1.675,0.098,2.34-0.399c15.617-11.679,28.069-26.914,35.82-44.52  C83.496,38.351,88.414,26.748,82.694,18.098z M58.66,36.255c2.361-3.282,4.852-6.474,7.489-9.553  c0.512-0.597,1.029-1.205,1.562-1.801c-4.528,11.318-12.004,21.43-17.67,32.323c-0.025-1.186-0.05-2.373-0.075-3.559  c-0.02-0.947-0.375-1.683-0.913-2.21C51.953,46.217,55.148,41.136,58.66,36.255z M30.007,21.611  c0.038,0.045,0.069,0.083,0.084,0.104c0.568,0.773,1.119,1.558,1.654,2.353c0.318,0.473,0.629,0.951,0.934,1.431  c-0.426,0.516-0.674,1.196-0.627,2.029c0.193,3.404,0.364,6.806,0.533,10.207c-0.075-0.355-0.151-0.71-0.227-1.065  c-0.938-4.419-1.951-8.849-2.351-13.351C29.965,22.83,29.995,22.222,30.007,21.611z M50.46,77.055  c0.014,0.005,0.029,0.009,0.043,0.014c-0.014,0.013-0.028,0.026-0.042,0.04C50.461,77.091,50.46,77.073,50.46,77.055z   M54.681,65.078c3.296-5.477,6.942-10.729,10.919-15.738C62.307,54.78,58.558,59.986,54.681,65.078z M78.396,28.03  c-1.059-0.237-2.229-0.025-3.13,0.825c-1.156,1.091-2.289,2.203-3.409,3.326c1.77-3.619,3.305-7.339,4.435-11.235  c0.511,0.435,0.911,1.073,1.25,1.865C78.25,24.463,78.467,26.237,78.396,28.03z M43.137,30.479  c-1.631-3.522-3.551-6.917-5.747-10.138C39.906,23.377,41.835,26.821,43.137,30.479z M22.139,15.411  c0.203-1.339,0.323-2.905,1.845-3.338c1.205-0.342,2.744,0.089,3.915,0.547c-1.05,0.089-2.114,0.579-3.146,1.648  c-3.12,3.229-1.655,9.261-1.098,13.116c1.598,11.06,4.435,22.024,6.758,32.959c0.65,3.061,1.145,6.146,1.71,9.203  c-3.833-9.285-7.092-18.775-9.002-28.619C21.507,32.61,20.867,23.818,22.139,15.411z"/><text x="0" y="115" fill="#000000" font-size="5px" font-weight="bold" font-family="'Helvetica Neue', Helvetica, Arial-Unicode, Arial, Sans-serif">Created by Ale Estrada</text><text x="0" y="120" fill="#000000" font-size="5px" font-weight="bold" font-family="'Helvetica Neue', Helvetica, Arial-Unicode, Arial, Sans-serif">from the Noun Project</text></svg>