<svg xmlns="http://www.w3.org/2000/svg" xmlns:xlink="http://www.w3.org/1999/xlink" version="1.1" x="0px" y="0px" viewBox="0 0 512 640" style="enable-background:new 0 0 512 512;" xml:space="preserve"><g><g><path d="M494.943,481.528l-120-240c-3.268-6.535-12.24-7.473-16.785-1.735l-45.363,57.302c-5.971-10.74,3.938,5.823-56.795-93.901    V136h140c5.521,0,10-4.477,10-10V26c0-5.523-4.479-10-10-10H246c-5.523,0-10,4.477-10,10c0,21.995,0,169.928,0,177.683    l-36.3,74.123l-6.49,11.717l-39.369-49.729c-4.536-5.73-13.512-4.81-16.785,1.735l-120,240C13.737,488.164,18.568,496,26,496    c58.286,0,448.815,0,460,0C493.418,496,498.268,488.176,494.943,481.528z M389.029,476H112.781    c3.497-6.313,88.47-159.719,94.33-170.298l2.995,7.487c5.856,14.642,23.512,19.751,36.25,11.259l5.341-3.562    c1.734-1.155,4.082-0.966,5.603,0.556c10.398,10.398,27.629,9.352,36.654-2.381c0.08-0.104,5.051-6.565,4.736-6.156    C302.699,320.146,385.145,468.988,389.029,476z M256,36h130v80H256V36z M246.954,226.788l40.989,67.284l-9.842,12.795    c-1.605,2.086-4.732,2.361-6.66,0.433c-8.42-8.421-21.343-9.384-30.839-3.054l-5.341,3.562c-2.373,1.58-5.546,0.556-6.586-2.046    l-9.17-22.925L246.954,226.788z M147.915,264.53l34.793,43.95c-3.02,5.452-87.863,158.622-92.791,167.52H42.18L147.915,264.53z     M411.893,476c-2.391-4.315-87.957-158.793-88.596-159.947l40.787-51.522L469.818,476H411.893z"/><path d="M72.355,136.932l-5.548,27.544c-0.772,3.834,0.761,7.766,3.925,10.065c3.163,2.298,7.377,2.542,10.785,0.623L106,161.375    l24.482,13.788c3.37,1.899,7.587,1.701,10.785-0.623c3.164-2.299,4.697-6.231,3.925-10.065l-5.548-27.544l20.679-19.023    c2.878-2.647,3.949-6.73,2.74-10.45c-1.208-3.719-4.475-6.393-8.359-6.843l-27.911-3.235l-11.702-25.545    C113.462,68.28,109.91,66,106,66s-7.463,2.28-9.091,5.835L85.206,97.38l-27.911,3.235c-3.885,0.45-7.151,3.124-8.359,6.843    c-1.208,3.72-0.138,7.802,2.74,10.45L72.355,136.932z M93.104,116.599c3.473-0.403,6.484-2.59,7.94-5.769L106,100.012    l4.956,10.818c1.456,3.179,4.467,5.366,7.94,5.769l11.82,1.37l-8.757,8.057c-2.574,2.367-3.724,5.906-3.033,9.334l2.35,11.665    l-10.368-5.839c-3.047-1.716-6.769-1.716-9.814,0l-10.368,5.839l2.35-11.665c0.69-3.428-0.459-6.967-3.033-9.334l-8.757-8.057    L93.104,116.599z"/></g></g><text x="0" y="527" fill="#000000" font-size="5px" font-weight="bold" font-family="'Helvetica Neue', Helvetica, Arial-Unicode, Arial, Sans-serif">Created by Flatart</text><text x="0" y="532" fill="#000000" font-size="5px" font-weight="bold" font-family="'Helvetica Neue', Helvetica, Arial-Unicode, Arial, Sans-serif">from the Noun Project</text></svg>