<svg xmlns="http://www.w3.org/2000/svg" xmlns:xlink="http://www.w3.org/1999/xlink" version="1.1" x="0px" y="0px" viewBox="0 0 512 640" style="enable-background:new 0 0 512 512;" xml:space="preserve"><g><g><g><path d="M364.615,500h-209.23c-4.326,0-8.161-2.781-9.505-6.893l-65.385-200c-0.996-3.046-0.472-6.384,1.409-8.978     C83.786,281.535,86.796,280,90,280h340c3.204,0,6.215,1.535,8.096,4.13c1.881,2.594,2.405,5.932,1.409,8.978l-65.385,200     C372.776,497.219,368.94,500,364.615,500z M162.636,480h194.727l58.847-180H103.79L162.636,480z"/></g><g><path d="M310,300H200c-5.523,0-10-4.478-10-10V75c0-35.841,29.159-65,65-65c35.841,0,65,29.159,65,65v215     C320,295.522,315.522,300,310,300z M210,280h90V75c0-24.813-20.187-45-45-45c-24.813,0-45,20.187-45,45V280z"/></g><g><path d="M400,240h-90c-5.522,0-10-4.477-10-10v-60c0-5.523,4.478-10,10-10h50v-49.407c0-21.194,16.268-38.978,37.036-40.485     C398.021,70.036,399.018,70,400,70c22.056,0,40,17.944,40,40v90C440,222.056,422.056,240,400,240z M320,220h80     c11.028,0,20-8.972,20-20v-90c0-11.028-8.972-20-20-20c-0.501,0-1.012,0.019-1.517,0.055C388.119,90.808,380,99.829,380,110.593     V170c0,5.523-4.478,10-10,10h-50V220z"/></g><g><path d="M200,200h-90c-22.056,0-40-17.944-40-40V70c0-22.056,17.944-40,40-40s40,17.944,40,40v50h50c5.523,0,10,4.477,10,10v60     C210,195.523,205.523,200,200,200z M110,50c-11.028,0-20,8.972-20,20v90c0,11.028,8.972,20,20,20h80v-40h-50     c-5.523,0-10-4.477-10-10V70C130,58.972,121.028,50,110,50z"/></g><g><path d="M330,90h-20c-5.522,0-10-4.477-10-10s4.478-10,10-10h20c5.522,0,10,4.477,10,10S335.522,90,330,90z"/></g><g><path d="M330,120h-20c-5.522,0-10-4.477-10-10s4.478-10,10-10h20c5.522,0,10,4.477,10,10S335.522,120,330,120z"/></g><g><path d="M330,150h-20c-5.522,0-10-4.477-10-10s4.478-10,10-10h20c5.522,0,10,4.477,10,10S335.522,150,330,150z"/></g><g><path d="M450,150h-20c-5.522,0-10-4.477-10-10s4.478-10,10-10h20c5.522,0,10,4.477,10,10S455.522,150,450,150z"/></g><g><path d="M450,120h-20c-5.522,0-10-4.477-10-10s4.478-10,10-10h20c5.522,0,10,4.477,10,10S455.522,120,450,120z"/></g><g><path d="M450,180h-20c-5.522,0-10-4.477-10-10s4.478-10,10-10h20c5.522,0,10,4.477,10,10S455.522,180,450,180z"/></g><g><path d="M450,210h-20c-5.522,0-10-4.477-10-10s4.478-10,10-10h20c5.522,0,10,4.477,10,10S455.522,210,450,210z"/></g><g><path d="M80,110H60c-5.523,0-10-4.477-10-10s4.477-10,10-10h20c5.523,0,10,4.477,10,10S85.523,110,80,110z"/></g><g><path d="M80,80H60c-5.523,0-10-4.477-10-10s4.477-10,10-10h20c5.523,0,10,4.477,10,10S85.523,80,80,80z"/></g><g><path d="M80,140H60c-5.523,0-10-4.477-10-10s4.477-10,10-10h20c5.523,0,10,4.477,10,10S85.523,140,80,140z"/></g><g><path d="M80,170H60c-5.523,0-10-4.477-10-10s4.477-10,10-10h20c5.523,0,10,4.477,10,10S85.523,170,80,170z"/></g><g><path d="M200,80h-20c-5.523,0-10-4.477-10-10s4.477-10,10-10h20c5.523,0,10,4.477,10,10S205.523,80,200,80z"/></g><g><path d="M200,110h-20c-5.523,0-10-4.477-10-10s4.477-10,10-10h20c5.523,0,10,4.477,10,10S205.523,110,200,110z"/></g><g><path d="M200,230h-20c-5.523,0-10-4.477-10-10s4.477-10,10-10h20c5.523,0,10,4.477,10,10S205.523,230,200,230z"/></g><g><path d="M200,260h-20c-5.523,0-10-4.477-10-10s4.477-10,10-10h20c5.523,0,10,4.477,10,10S205.523,260,200,260z"/></g><g><path d="M340,260c-5.522,0-10-4.477-10-10v-20c0-5.523,4.478-10,10-10s10,4.477,10,10v20C350,255.523,345.522,260,340,260z"/></g><g><path d="M150,220c-5.523,0-10-4.477-10-10v-20c0-5.523,4.477-10,10-10s10,4.477,10,10v20C160,215.523,155.523,220,150,220z"/></g><g><path d="M120,220c-5.523,0-10-4.477-10-10v-20c0-5.523,4.477-10,10-10s10,4.477,10,10v20C130,215.523,125.523,220,120,220z"/></g><g><path d="M370,260c-5.522,0-10-4.477-10-10v-20c0-5.523,4.478-10,10-10s10,4.477,10,10v20C380,255.523,375.522,260,370,260z"/></g><g><path d="M400,260c-5.522,0-10-4.477-10-10v-20c0-5.523,4.478-10,10-10s10,4.477,10,10v20C410,255.523,405.522,260,400,260z"/></g><g><path d="M270,80c-5.522,0-10-4.477-10-10V60c0-5.523,4.478-10,10-10s10,4.477,10,10v10C280,75.523,275.522,80,270,80z"/></g><g><path d="M250,120c-5.523,0-10-4.477-10-10v-10c0-5.523,4.477-10,10-10s10,4.477,10,10v10C260,115.523,255.523,120,250,120z"/></g><g><path d="M230,90c-5.523,0-10-4.477-10-10V70c0-5.523,4.477-10,10-10s10,4.477,10,10v10C240,85.523,235.523,90,230,90z"/></g><g><path d="M230,160c-5.523,0-10-4.477-10-10v-10c0-5.523,4.477-10,10-10s10,4.477,10,10v10C240,155.523,235.523,160,230,160z"/></g><g><path d="M270,150c-5.522,0-10-4.477-10-10v-10c0-5.523,4.478-10,10-10s10,4.477,10,10v10C280,145.523,275.522,150,270,150z"/></g><g><path d="M280,200c-5.522,0-10-4.477-10-10v-10c0-5.523,4.478-10,10-10s10,4.477,10,10v10C290,195.523,285.522,200,280,200z"/></g><g><path d="M240,210c-5.523,0-10-4.477-10-10v-10c0-5.523,4.477-10,10-10s10,4.477,10,10v10C250,205.523,245.523,210,240,210z"/></g><g><path d="M230,250c-5.523,0-10-4.477-10-10v-10c0-5.523,4.477-10,10-10s10,4.477,10,10v10C240,245.523,235.523,250,230,250z"/></g><g><path d="M260,240c-5.523,0-10-4.477-10-10v-10c0-5.523,4.477-10,10-10c5.522,0,10,4.477,10,10v10     C270,235.523,265.522,240,260,240z"/></g><g><path d="M280,270c-5.522,0-10-4.478-10-10v-10c0-5.523,4.478-10,10-10s10,4.477,10,10v10C290,265.522,285.522,270,280,270z"/></g><g><path d="M360,350H110c-5.523,0-10-4.478-10-10s4.477-10,10-10h250c5.522,0,10,4.478,10,10S365.522,350,360,350z"/></g></g></g><text x="0" y="527" fill="#000000" font-size="5px" font-weight="bold" font-family="'Helvetica Neue', Helvetica, Arial-Unicode, Arial, Sans-serif">Created by Flatart</text><text x="0" y="532" fill="#000000" font-size="5px" font-weight="bold" font-family="'Helvetica Neue', Helvetica, Arial-Unicode, Arial, Sans-serif">from the Noun Project</text></svg>