<svg xmlns="http://www.w3.org/2000/svg" xmlns:xlink="http://www.w3.org/1999/xlink" version="1.1" x="0px" y="0px" viewBox="0 0 100 125" enable-background="new 0 0 100 100" xml:space="preserve"><g><path d="M79.4,46.7c-2.252,0-3.301,1.049-3.301,3.301c0,2.251,1.049,3.299,3.301,3.299c2.25,0,3.299-1.048,3.299-3.299   C82.699,47.749,81.65,46.7,79.4,46.7z"/><path d="M85,27.101H71.5v-9.507L58.607,4.7H28.5v22.4H15c-3.364,0-6.1,2.736-6.1,6.1v33.6c0,3.364,2.736,6.101,6.1,6.101h13.5V95.3   h43V72.9H85c3.363,0,6.1-2.736,6.1-6.101V33.2C91.1,29.837,88.363,27.101,85,27.101z M67.699,21.101v17.2H32.3v-29.8H55.1v12.6   H67.699z M58.9,17.301v-6.974l6.973,6.974H58.9z M71.5,61.7h0.9c1.117,0,1.898-0.781,1.898-1.9c0-1.118-0.781-1.899-1.898-1.899   H27.6c-1.119,0-1.9,0.781-1.9,1.899c0,1.119,0.781,1.9,1.9,1.9h0.9v7.4H15c-1.268,0-2.3-1.032-2.3-2.301V33.2   c0-1.269,1.032-2.3,2.3-2.3h13.5v7.4h-0.9c-1.119,0-1.9,0.781-1.9,1.899c0,1.119,0.781,1.9,1.9,1.9h44.8   c1.117,0,1.898-0.781,1.898-1.9c0-1.118-0.781-1.899-1.898-1.899h-0.9v-7.4H85c1.268,0,2.299,1.031,2.299,2.3v33.6   c0,1.269-1.031,2.301-2.299,2.301H71.5V61.7z M32.3,91.501V61.7h35.399v29.801H32.3z"/><path d="M62.6,66.3H37.4c-1.118,0-1.899,0.781-1.899,1.9s0.781,1.9,1.899,1.9h25.2c1.119,0,1.9-0.781,1.9-1.9   S63.719,66.3,62.6,66.3z"/><path d="M62.6,83.101H37.4c-1.118,0-1.899,0.781-1.899,1.9c0,1.118,0.781,1.899,1.899,1.899h25.2c1.119,0,1.9-0.781,1.9-1.899   C64.5,83.882,63.719,83.101,62.6,83.101z"/><path d="M62.6,74.7H37.4c-1.118,0-1.899,0.781-1.899,1.9s0.781,1.9,1.899,1.9h25.2c1.119,0,1.9-0.781,1.9-1.9   S63.719,74.7,62.6,74.7z"/></g><text x="0" y="115" fill="#000000" font-size="5px" font-weight="bold" font-family="'Helvetica Neue', Helvetica, Arial-Unicode, Arial, Sans-serif">Created by Yorlmar Campos</text><text x="0" y="120" fill="#000000" font-size="5px" font-weight="bold" font-family="'Helvetica Neue', Helvetica, Arial-Unicode, Arial, Sans-serif">from the Noun Project</text></svg>